<svg width="49" height="24" viewBox="0 0 49 24" fill="none" xmlns="http://www.w3.org/2000/svg">
<path fill-rule="evenodd" clip-rule="evenodd" d="M11.7264 0.0171121C11.7892 0.0058675 11.8538 0 11.9197 0C16.0904 0 18.9656 2.23083 21.2274 5.10397C21.6028 5.58078 21.5228 6.27346 21.0489 6.65111C20.575 7.02876 19.8865 6.94837 19.5111 6.47156C17.5076 3.92657 15.245 2.26351 12.0943 2.20431C12.0375 2.21348 11.9791 2.21825 11.9197 2.21825C6.54305 2.21825 2.18936 6.59842 2.18936 12.0078C2.18936 17.4172 6.54305 21.7973 11.9197 21.7973C14.6398 21.7973 16.6921 20.6213 18.4793 18.7353C20.3049 16.8088 21.7881 14.2129 23.3527 11.4609L23.3929 11.3901C24.9123 8.71771 26.5148 5.89913 28.5403 3.76055C30.6221 1.56252 33.2119 0.0155695 36.6803 0.0155695C43.2661 0.0155695 48.6 5.38191 48.6 12.0078C48.6 18.6337 43.2661 24 36.6803 24C36.6142 24 36.5495 23.9941 36.4866 23.9828C32.4466 23.9153 29.6258 21.7362 27.4043 18.9203C27.0284 18.4438 27.1076 17.7511 27.5812 17.3729C28.0547 16.9948 28.7433 17.0745 29.1191 17.5509C31.149 20.1239 33.4579 21.7818 36.6803 21.7818C36.7399 21.7818 36.7984 21.7865 36.8554 21.7958C42.1512 21.7019 46.4106 17.3583 46.4106 12.0078C46.4106 6.59842 42.057 2.21825 36.6803 2.21825C33.9624 2.21825 31.9116 3.39402 30.1253 5.28006C28.3005 7.20667 26.8178 9.80257 25.2531 12.5546L25.2155 12.6207C23.6953 15.2947 22.0916 18.1153 20.0639 20.2552C17.981 22.4533 15.3898 24 11.9197 24C5.3339 24 0 18.6337 0 12.0078C0 5.44685 5.22985 0.12088 11.7264 0.0171121Z" fill="#4F8BFF"/>
</svg>
