<svg width="106" height="16" viewBox="0 0 106 16" fill="none" xmlns="http://www.w3.org/2000/svg">
<path d="M42.2333 16V4.54668H43.8293V16H42.2333ZM40.4 5.84574V4.54668H43.8293V5.84574H40.4ZM42.5784 2.4249C42.1901 2.4249 41.8954 2.32386 41.6941 2.12179C41.5072 1.90528 41.4137 1.63825 41.4137 1.3207C41.4137 1.00316 41.5072 0.743346 41.6941 0.541271C41.8954 0.324763 42.1901 0.216509 42.5784 0.216509C42.9666 0.216509 43.2542 0.324763 43.4411 0.541271C43.628 0.743346 43.7215 1.00316 43.7215 1.3207C43.7215 1.63825 43.628 1.90528 43.4411 2.12179C43.2542 2.32386 42.9666 2.4249 42.5784 2.4249Z" fill="white"/>
<path d="M48.0744 16V4.54668H49.3685V9.35318H49.1097C49.1097 8.28507 49.2679 7.36852 49.5842 6.60352C49.9005 5.83852 50.375 5.24673 51.0077 4.82815C51.6403 4.40956 52.4383 4.20027 53.4017 4.20027H53.4664C54.9042 4.20027 55.9754 4.65494 56.68 5.56428C57.3845 6.45918 57.7368 7.72215 57.7368 9.35318V16H56.1408V9.00677C56.1408 8.01083 55.8676 7.20974 55.3212 6.60352C54.7748 5.99729 54.0128 5.69418 53.035 5.69418C52.0285 5.69418 51.2161 6.01173 50.5979 6.64682C49.994 7.26748 49.692 8.09021 49.692 9.11502V16H48.0744Z" fill="white"/>
<path d="M62.0884 16V3.52909C62.0884 2.33108 62.3976 1.44339 63.0158 0.866034C63.6341 0.288678 64.5615 0 65.7981 0H67.1137V1.38566H65.4961C64.8922 1.38566 64.4321 1.54443 64.1158 1.86197C63.7995 2.17952 63.6413 2.62697 63.6413 3.20433V16H62.0884ZM60.4277 5.80244V4.54668H67.049V5.80244H60.4277ZM70.0254 16V4.54668H71.6429V16H70.0254ZM68.2568 5.84574V4.54668H71.6429V5.84574H68.2568ZM70.3705 2.4249C69.9822 2.4249 69.6947 2.32386 69.5077 2.12179C69.3208 1.90528 69.2274 1.63825 69.2274 1.3207C69.2274 1.00316 69.3208 0.743346 69.5077 0.541271C69.6947 0.324763 69.9822 0.216509 70.3705 0.216509C70.7587 0.216509 71.0462 0.324763 71.2332 0.541271C71.4201 0.743346 71.5135 1.00316 71.5135 1.3207C71.5135 1.63825 71.4201 1.90528 71.2332 2.12179C71.0462 2.32386 70.7587 2.4249 70.3705 2.4249Z" fill="white"/>
<path d="M75.8766 16V4.54668H77.1707V9.35318H76.9119C76.9119 8.28507 77.07 7.36852 77.3864 6.60352C77.7027 5.83852 78.1772 5.24673 78.8098 4.82815C79.4425 4.40956 80.2405 4.20027 81.2039 4.20027H81.2686C82.7064 4.20027 83.7776 4.65494 84.4822 5.56428C85.1867 6.45918 85.539 7.72215 85.539 9.35318V16H83.943V9.00677C83.943 8.01083 83.6698 7.20974 83.1234 6.60352C82.577 5.99729 81.815 5.69418 80.8372 5.69418C79.8307 5.69418 79.0183 6.01173 78.4001 6.64682C77.7962 7.26748 77.4942 8.09021 77.4942 9.11502V16H75.8766Z" fill="white"/>
<path d="M90.171 16V4.54668H91.767V16H90.171ZM88.3377 5.84574V4.54668H91.767V5.84574H88.3377ZM90.5161 2.4249C90.1279 2.4249 89.8331 2.32386 89.6318 2.12179C89.4449 1.90528 89.3514 1.63825 89.3514 1.3207C89.3514 1.00316 89.4449 0.743346 89.6318 0.541271C89.8331 0.324763 90.1279 0.216509 90.5161 0.216509C90.9043 0.216509 91.1919 0.324763 91.3788 0.541271C91.5657 0.743346 91.6592 1.00316 91.6592 1.3207C91.6592 1.63825 91.5657 1.90528 91.3788 2.12179C91.1919 2.32386 90.9043 2.4249 90.5161 2.4249Z" fill="white"/>
<path d="M94.6103 16L98.8375 9.9594V10.3924L94.8691 4.54668H96.6376L99.6571 9.05007H99.9591L102.828 4.54668H104.488L100.757 10.2192V9.80785L105.2 16H103.431L99.9375 11.1286H99.6571L96.271 16H94.6103Z" fill="white"/>
<path fill-rule="evenodd" clip-rule="evenodd" d="M7.81762 0.0114081C7.85944 0.00391167 7.9025 0 7.94647 0C10.7269 0 12.6437 1.48722 14.1516 3.40265C14.4018 3.72052 14.3486 4.18231 14.0326 4.43408C13.7167 4.68584 13.2577 4.63225 13.0074 4.31437C11.6717 2.61771 10.1633 1.509 8.06288 1.46954C8.02497 1.47565 7.98609 1.47883 7.94647 1.47883C4.36203 1.47883 1.45957 4.39895 1.45957 8.00519C1.45957 11.6114 4.36203 14.5315 7.94647 14.5315C9.75985 14.5315 11.1281 13.7475 12.3195 12.4902C13.5366 11.2058 14.5254 9.47526 15.5685 7.64063L15.5953 7.59343C16.6082 5.8118 17.6765 3.93275 19.0268 2.50704C20.4147 1.04168 22.1413 0.0103797 24.4535 0.0103797C28.8441 0.0103797 32.4 3.58794 32.4 8.00519C32.4 12.4224 28.8441 16 24.4535 16C24.4095 16 24.3663 15.9961 24.3244 15.9885C21.631 15.9435 19.7505 14.4908 18.2695 12.6135C18.0189 12.2959 18.0717 11.8341 18.3874 11.582C18.7031 11.3299 19.1622 11.383 19.4128 11.7006C20.766 13.4159 22.3053 14.5212 24.4535 14.5212C24.4933 14.5212 24.5323 14.5244 24.5703 14.5305C28.1008 14.4679 30.9404 11.5722 30.9404 8.00519C30.9404 4.39895 28.038 1.47883 24.4535 1.47883C22.6416 1.47883 21.2744 2.26268 20.0835 3.52004C18.867 4.80445 17.8785 6.53504 16.8354 8.36975L16.8104 8.41382C15.7969 10.1965 14.7278 12.0769 13.3759 13.5035C11.9873 14.9689 10.2599 16 7.94647 16C3.55593 16 0 12.4224 0 8.00519C0 3.63124 3.48657 0.0805868 7.81762 0.0114081Z" fill="url(#paint0_linear_0_1)"/>
<defs>
<linearGradient id="paint0_linear_0_1" x1="37.8294" y1="8" x2="-6.73966" y2="8" gradientUnits="userSpaceOnUse">
<stop stop-color="#377BFF"/>
<stop offset="1" stop-color="#00F5A0"/>
</linearGradient>
</defs>
</svg>
