<svg width="64" height="64" viewBox="0 0 64 64" fill="none" xmlns="http://www.w3.org/2000/svg">
<path d="M41.3335 29.3333C43.5426 29.3333 45.3335 27.5425 45.3335 25.3333C45.3335 23.1242 43.5426 21.3333 41.3335 21.3333C39.1244 21.3333 37.3335 23.1242 37.3335 25.3333C37.3335 27.5425 39.1244 29.3333 41.3335 29.3333Z" fill="#4F8BFF"/>
<path d="M22.6668 29.3333C24.876 29.3333 26.6668 27.5425 26.6668 25.3333C26.6668 23.1242 24.876 21.3333 22.6668 21.3333C20.4577 21.3333 18.6668 23.1242 18.6668 25.3333C18.6668 27.5425 20.4577 29.3333 22.6668 29.3333Z" fill="#4F8BFF"/>
<path d="M32.0002 37.3333C25.7868 37.3333 20.4802 41.2 18.3468 46.6666H22.8002C24.6402 43.4933 28.0535 41.3333 32.0002 41.3333C35.9468 41.3333 39.3335 43.4933 41.2002 46.6666H45.6535C43.5202 41.2 38.2135 37.3333 32.0002 37.3333ZM31.9735 5.33331C17.2535 5.33331 5.3335 17.28 5.3335 32C5.3335 46.72 17.2535 58.6666 31.9735 58.6666C46.7202 58.6666 58.6668 46.72 58.6668 32C58.6668 17.28 46.7202 5.33331 31.9735 5.33331ZM32.0002 53.3333C20.2135 53.3333 10.6668 43.7866 10.6668 32C10.6668 20.2133 20.2135 10.6666 32.0002 10.6666C43.7868 10.6666 53.3335 20.2133 53.3335 32C53.3335 43.7866 43.7868 53.3333 32.0002 53.3333Z" fill="#4F8BFF"/>
</svg>
