<svg width="24" height="24" viewBox="0 0 24 24" fill="none" xmlns="http://www.w3.org/2000/svg">
<path d="M12 24C18.65 24 24 18.65 24 12C24 5.34996 18.65 0 12 0C5.34996 0 0 5.34996 0 12C0 18.65 5.34996 24 12 24Z" fill="#F0F3FA"/>
<path d="M17.8824 11.1432H12V13.296H15.3912C14.8956 14.6928 13.5672 15.6 12 15.6C11.4165 15.6011 10.8414 15.4603 10.3244 15.1898C9.80734 14.9193 9.36381 14.5271 9.03199 14.0471C8.70017 13.5671 8.49001 13.0136 8.4196 12.4344C8.34919 11.8551 8.42065 11.2674 8.62782 10.7219C8.83499 10.1764 9.17166 9.6894 9.60884 9.3029C10.046 8.9164 10.5706 8.64196 11.1374 8.50323C11.7042 8.3645 12.2962 8.36562 12.8625 8.50651C13.4288 8.64741 13.9523 8.92384 14.388 9.312L16.0848 7.6152C14.9779 6.57735 13.5174 5.99984 12 6C10.8133 6 9.65328 6.35189 8.66658 7.01118C7.67989 7.67047 6.91085 8.60754 6.45673 9.7039C6.0026 10.8003 5.88378 12.0067 6.11529 13.1705C6.3468 14.3344 6.91825 15.4035 7.75736 16.2426C8.59648 17.0818 9.66557 17.6532 10.8295 17.8847C11.9933 18.1162 13.1997 17.9974 14.2961 17.5433C15.3925 17.0891 16.3295 16.3201 16.9888 15.3334C17.6481 14.3467 18 13.1867 18 12C18 11.676 17.9592 11.5236 17.8824 11.1432Z" fill="#FFC107"/>
<path d="M6.69116 9.2076L8.66396 10.6536C8.93196 9.98817 9.39278 9.41805 9.98722 9.01648C10.5817 8.61491 11.2826 8.40022 12 8.4C12.918 8.4 13.752 8.7456 14.388 9.312L16.0848 7.6152C14.9778 6.57735 13.5173 5.99984 12 6C10.9067 5.99993 9.8343 6.29873 8.89862 6.86407C7.96293 7.42942 7.1996 8.23981 6.69116 9.2076Z" fill="#FF3D00"/>
<path d="M11.9999 18C13.4879 17.9998 14.9222 17.4444 16.0223 16.4424L14.1659 14.8704C13.5431 15.344 12.7823 15.6003 11.9999 15.6C10.4399 15.6 9.11509 14.604 8.61589 13.2168L6.65869 14.724C7.16025 15.7095 7.92462 16.5371 8.86725 17.1153C9.80989 17.6935 10.8941 17.9997 11.9999 18Z" fill="#4CAF50"/>
<path d="M17.8824 11.1433H12V13.2961H15.3912C15.1536 13.9681 14.7216 14.4493 14.1648 14.8717L16.0224 16.4437C15.8916 16.5601 18 15.0001 18 12.0001C18 11.5981 17.9592 11.5237 17.8824 11.1433Z" fill="#1976D2"/>
</svg>
