<svg width="24" height="24" viewBox="0 0 24 24" fill="none" xmlns="http://www.w3.org/2000/svg">
<g clip-path="url(#clip0_7703_4079)">
<path d="M22.8045 1L13.4397 7.87731L15.1715 3.8198L22.8045 1Z" fill="#E2761B" stroke="#E2761B" stroke-width="0.101334" stroke-linecap="round" stroke-linejoin="round"/>
<path d="M1.18604 1L10.4755 7.94246L8.82839 3.8198L1.18604 1Z" fill="#E4761B" stroke="#E4761B" stroke-width="0.101334" stroke-linecap="round" stroke-linejoin="round"/>
<path d="M19.4355 16.9417L16.9414 20.72L22.278 22.1717L23.812 17.0254L19.4355 16.9417Z" fill="#E4761B" stroke="#E4761B" stroke-width="0.101334" stroke-linecap="round" stroke-linejoin="round"/>
<path d="M0.197021 17.0254L1.72173 22.1717L7.05823 20.72L4.5641 16.9417L0.197021 17.0254Z" fill="#E4761B" stroke="#E4761B" stroke-width="0.101334" stroke-linecap="round" stroke-linejoin="round"/>
<path d="M6.75709 10.5577L5.27002 12.7819L10.5689 13.0146L10.3806 7.38428L6.75709 10.5577Z" fill="#E4761B" stroke="#E4761B" stroke-width="0.101334" stroke-linecap="round" stroke-linejoin="round"/>
<path d="M17.2326 10.5574L13.562 7.31885L13.4397 13.0143L18.7291 12.7816L17.2326 10.5574Z" fill="#E4761B" stroke="#E4761B" stroke-width="0.101334" stroke-linecap="round" stroke-linejoin="round"/>
<path d="M7.05859 20.7198L10.2398 19.1843L7.49153 17.0625L7.05859 20.7198Z" fill="#E4761B" stroke="#E4761B" stroke-width="0.101334" stroke-linecap="round" stroke-linejoin="round"/>
<path d="M13.7505 19.1843L16.9411 20.7198L16.4987 17.0625L13.7505 19.1843Z" fill="#E4761B" stroke="#E4761B" stroke-width="0.101334" stroke-linecap="round" stroke-linejoin="round"/>
<path d="M16.9411 20.7201L13.7505 19.1846L14.0046 21.2412L13.9764 22.1067L16.9411 20.7201Z" fill="#D7C1B3" stroke="#D7C1B3" stroke-width="0.101334" stroke-linecap="round" stroke-linejoin="round"/>
<path d="M7.05859 20.7201L10.0233 22.1067L10.0045 21.2412L10.2398 19.1846L7.05859 20.7201Z" fill="#D7C1B3" stroke="#D7C1B3" stroke-width="0.101334" stroke-linecap="round" stroke-linejoin="round"/>
<path d="M10.0704 15.7038L7.41626 14.9313L9.28919 14.0845L10.0704 15.7038Z" fill="#233447" stroke="#233447" stroke-width="0.101334" stroke-linecap="round" stroke-linejoin="round"/>
<path d="M13.9197 15.7038L14.7009 14.0845L16.5832 14.9313L13.9197 15.7038Z" fill="#233447" stroke="#233447" stroke-width="0.101334" stroke-linecap="round" stroke-linejoin="round"/>
<path d="M7.05858 20.72L7.51034 16.9417L4.56445 17.0254L7.05858 20.72Z" fill="#CD6116" stroke="#CD6116" stroke-width="0.101334" stroke-linecap="round" stroke-linejoin="round"/>
<path d="M16.4897 16.9417L16.9415 20.72L19.4356 17.0254L16.4897 16.9417Z" fill="#CD6116" stroke="#CD6116" stroke-width="0.101334" stroke-linecap="round" stroke-linejoin="round"/>
<path d="M18.7291 12.7817L13.4397 13.0145L13.9291 15.704L14.7103 14.0847L16.5926 14.9315L18.7291 12.7817Z" fill="#CD6116" stroke="#CD6116" stroke-width="0.101334" stroke-linecap="round" stroke-linejoin="round"/>
<path d="M7.41591 14.9315L9.2983 14.0847L10.07 15.704L10.5688 13.0145L5.27002 12.7817L7.41591 14.9315Z" fill="#CD6116" stroke="#CD6116" stroke-width="0.101334" stroke-linecap="round" stroke-linejoin="round"/>
<path d="M5.27002 12.7817L7.49121 17.0627L7.41591 14.9315L5.27002 12.7817Z" fill="#E4751F" stroke="#E4751F" stroke-width="0.101334" stroke-linecap="round" stroke-linejoin="round"/>
<path d="M16.5931 14.9315L16.499 17.0627L18.7296 12.7817L16.5931 14.9315Z" fill="#E4751F" stroke="#E4751F" stroke-width="0.101334" stroke-linecap="round" stroke-linejoin="round"/>
<path d="M10.5699 13.0146L10.071 15.7041L10.6922 18.8775L10.8334 14.6991L10.5699 13.0146Z" fill="#E4751F" stroke="#E4751F" stroke-width="0.101334" stroke-linecap="round" stroke-linejoin="round"/>
<path d="M13.4402 13.0146L13.186 14.6897L13.299 18.8775L13.9296 15.7041L13.4402 13.0146Z" fill="#E4751F" stroke="#E4751F" stroke-width="0.101334" stroke-linecap="round" stroke-linejoin="round"/>
<path d="M13.9292 15.7038L13.2986 18.8772L13.7504 19.1844L16.4987 17.0625L16.5928 14.9314L13.9292 15.7038Z" fill="#F6851B" stroke="#F6851B" stroke-width="0.101334" stroke-linecap="round" stroke-linejoin="round"/>
<path d="M7.41626 14.9314L7.49155 17.0625L10.2398 19.1844L10.6916 18.8772L10.0704 15.7038L7.41626 14.9314Z" fill="#F6851B" stroke="#F6851B" stroke-width="0.101334" stroke-linecap="round" stroke-linejoin="round"/>
<path d="M13.9763 22.1066L14.0045 21.2411L13.7692 21.0364H10.2209L10.0045 21.2411L10.0233 22.1066L7.05859 20.72L8.09388 21.5575L10.1927 23H13.7974L15.9056 21.5575L16.941 20.72L13.9763 22.1066Z" fill="#C0AD9E" stroke="#C0AD9E" stroke-width="0.101334" stroke-linecap="round" stroke-linejoin="round"/>
<path d="M13.7503 19.1846L13.2986 18.8774H10.6915L10.2397 19.1846L10.0044 21.2412L10.2208 21.0365H13.7691L14.0044 21.2412L13.7503 19.1846Z" fill="#161616" stroke="#161616" stroke-width="0.101334" stroke-linecap="round" stroke-linejoin="round"/>
<path d="M23.1999 8.32402L24 4.52707L22.8046 1L13.7505 7.64466L17.2328 10.5575L22.1553 11.9813L23.247 10.725L22.7764 10.39L23.5294 9.71067L22.9458 9.26392L23.6987 8.69627L23.1999 8.32402Z" fill="#763D16" stroke="#763D16" stroke-width="0.101334" stroke-linecap="round" stroke-linejoin="round"/>
<path d="M0 4.52707L0.800003 8.32402L0.291766 8.69627L1.04471 9.26392L0.47059 9.71067L1.22353 10.39L0.752946 10.725L1.8353 11.9813L6.75768 10.5575L10.2401 7.64466L1.18589 1L0 4.52707Z" fill="#763D16" stroke="#763D16" stroke-width="0.101334" stroke-linecap="round" stroke-linejoin="round"/>
<path d="M22.1555 11.9814L17.2331 10.5576L18.7296 12.7817L16.499 17.0627L19.4355 17.0254H23.812L22.1555 11.9814Z" fill="#F6851B" stroke="#F6851B" stroke-width="0.101334" stroke-linecap="round" stroke-linejoin="round"/>
<path d="M6.75705 10.5576L1.83467 11.9814L0.197021 17.0254H4.5641L7.49117 17.0627L5.26999 12.7817L6.75705 10.5576Z" fill="#F6851B" stroke="#F6851B" stroke-width="0.101334" stroke-linecap="round" stroke-linejoin="round"/>
<path d="M13.4399 13.0144L13.7505 7.64469L15.1811 3.81982H8.82812L10.2399 7.64469L10.5693 13.0144L10.6822 14.7081L10.6917 18.8773H13.2987L13.3176 14.7081L13.4399 13.0144Z" fill="#F6851B" stroke="#F6851B" stroke-width="0.101334" stroke-linecap="round" stroke-linejoin="round"/>
</g>
<defs>
<clipPath id="clip0_7703_4079">
<rect width="24" height="24" fill="white"/>
</clipPath>
</defs>
</svg>
