<svg width="24" height="24" viewBox="0 0 24 24" fill="none" xmlns="http://www.w3.org/2000/svg">
<g clip-path="url(#clip0_7754_578)">
<path d="M23.6263 14.9262C22.0236 21.3548 15.5125 25.2671 9.08307 23.664C2.65637 22.0614 -1.25597 15.5498 0.347419 9.12168C1.9494 2.69234 8.46056 -1.22029 14.888 0.382396C21.3169 1.98508 25.229 8.49736 23.6261 14.9263L23.6263 14.9262H23.6263Z" fill="#F7931A"/>
<path d="M17.2984 10.3046C17.5372 8.70768 16.3214 7.84926 14.6589 7.27662L15.1982 5.11342L13.8814 4.78531L13.3564 6.89155C13.0102 6.80521 12.6547 6.72385 12.3014 6.6432L12.8302 4.52306L11.5142 4.19495L10.9746 6.35744C10.6881 6.29221 10.4068 6.22775 10.1338 6.15983L10.1353 6.15302L8.31941 5.69956L7.96913 7.10599C7.96913 7.10599 8.94608 7.32993 8.92549 7.34372C9.45873 7.4768 9.55515 7.82979 9.53914 8.10957L8.92479 10.574C8.96151 10.5833 9.00914 10.5968 9.06169 10.6179C9.01776 10.607 8.97101 10.5951 8.9225 10.5835L8.06139 14.0357C7.99622 14.1977 7.83082 14.4408 7.45801 14.3485C7.4712 14.3676 6.50094 14.1097 6.50094 14.1097L5.84717 15.617L7.56077 16.0442C7.87956 16.1241 8.19196 16.2078 8.4996 16.2864L7.9547 18.4744L9.26997 18.8025L9.8096 16.6378C10.1689 16.7353 10.5176 16.8253 10.859 16.9101L10.3212 19.0647L11.638 19.3928L12.1829 17.2089C14.4283 17.6338 16.1167 17.4625 16.8274 15.4315C17.4 13.7963 16.7989 12.8532 15.6175 12.2381C16.478 12.0397 17.126 11.4738 17.2988 10.3048L17.2984 10.3045L17.2984 10.3046ZM14.2898 14.5234C13.8828 16.1586 11.1297 15.2747 10.2371 15.053L10.9602 12.1543C11.8527 12.3771 14.7151 12.8181 14.2898 14.5234H14.2898ZM14.697 10.2809C14.3258 11.7683 12.0343 11.0126 11.291 10.8273L11.9466 8.19838C12.6899 8.38367 15.0837 8.7295 14.6971 10.2809H14.697Z" fill="white"/>
</g>
<defs>
<clipPath id="clip0_7754_578">
<rect width="24" height="24" fill="white"/>
</clipPath>
</defs>
</svg>
