<svg width="24" height="24" viewBox="0 0 24 24" fill="none" xmlns="http://www.w3.org/2000/svg">
<g clip-path="url(#clip0_8123_2732)">
<path d="M23.9729 0.0273438H0.0273438V23.9729H23.9729V0.0273438Z" fill="black" stroke="black" stroke-miterlimit="10"/>
<path d="M20.3319 6.93319C20.0489 6.71006 19.7115 6.4053 19.0965 6.32911C18.5196 6.25292 17.9319 6.63931 17.5346 6.8951C17.1373 7.15088 16.3863 7.9019 16.0761 8.13047C15.7659 8.35904 14.9713 8.57129 13.6924 9.33864C12.4135 10.106 7.39584 13.3278 7.39584 13.3278L8.70196 13.3441L2.87883 16.3427H3.46114L2.62305 16.9795C2.62305 16.9795 3.36318 17.1754 3.98359 16.7835V16.9631C3.98359 16.9631 10.9169 14.2312 12.2557 14.9386L11.4394 15.1781C11.5101 15.1781 12.8271 15.2652 12.8271 15.2652C12.8591 15.5379 12.9508 15.8002 13.0956 16.0335C13.2405 16.2668 13.435 16.4653 13.6652 16.6148C14.4598 17.1373 14.4761 17.4257 14.4761 17.4257C14.4761 17.4257 14.0625 17.5944 14.0625 17.8067C14.0625 17.8067 14.672 17.6216 15.238 17.638C15.5972 17.6516 15.9535 17.7082 16.2992 17.8067C16.2992 17.8067 16.2557 17.5781 15.706 17.4257C15.1564 17.2733 14.6122 16.6747 14.3455 16.3482C14.1822 16.1403 14.0757 15.8936 14.0366 15.6321C13.9975 15.3707 14.027 15.1036 14.1224 14.857C14.3128 14.3618 14.9768 14.0897 16.3482 13.3822C17.9645 12.5441 18.3346 11.9237 18.5632 11.4393C18.7918 10.955 19.1292 9.9917 19.3196 9.54C19.5591 8.95768 19.853 8.64748 20.0979 8.46244C20.3428 8.27741 21.4312 7.86925 21.4312 7.86925C21.4312 7.86925 20.5986 7.14544 20.3319 6.93319Z" fill="white"/>
</g>
<defs>
<clipPath id="clip0_8123_2732">
<path d="M0 12C0 5.37258 5.37258 0 12 0C18.6274 0 24 5.37258 24 12C24 18.6274 18.6274 24 12 24C5.37258 24 0 18.6274 0 12Z" fill="white"/>
</clipPath>
</defs>
</svg>
