<svg width="24" height="24" viewBox="0 0 24 24" fill="none" xmlns="http://www.w3.org/2000/svg">
<path d="M0 12C0 5.37258 5.37258 0 12 0C18.6274 0 24 5.37258 24 12C24 18.6274 18.6274 24 12 24C5.37258 24 0 18.6274 0 12Z" fill="#0C0600"/>
<path d="M19.0477 11.6138C18.8456 11.6138 18.6435 11.639 18.4667 11.7401C18.2393 11.8917 18.0625 12.2453 18.0625 12.5737C18.0625 12.8516 18.3151 13.2053 18.593 13.3569C19.3761 13.7611 20.2098 12.8516 19.8056 12.0938C19.6793 11.8159 19.3509 11.639 19.0477 11.6138Z" fill="#FF8500"/>
<path d="M12.7197 6.20772C12.9976 6.25825 13.4018 7.21821 13.4776 8.02661C13.5029 8.20344 13.4776 8.58237 13.4776 8.86026C13.4523 9.28972 13.4018 9.41603 13.2502 9.61813C12.9218 10.0981 12.3155 10.4013 11.5324 10.4518C11.305 10.477 10.9261 10.5023 10.724 10.5023C10.3956 10.477 10.3703 10.477 10.4209 10.3507C10.4461 10.3002 10.5219 10.1234 10.5724 9.9718C10.9009 8.96131 11.6335 7.34452 12.0124 6.83928C12.265 6.46035 12.5682 6.18246 12.7197 6.20772ZM12.4671 4.00991C12.3408 4.00991 12.1892 4.03517 11.9619 4.11096C11.6335 4.21201 11.3303 4.38884 11.0524 4.6162C10.6482 4.91935 10.5977 4.94461 10.5724 4.8183C10.5472 4.6162 10.2188 4.33832 9.91562 4.31306C9.61248 4.26253 9.23354 4.41411 9.08197 4.64147C9.00618 4.74251 8.80408 5.07092 8.60199 5.39933C8.24831 6.00563 8.122 6.43508 8.24831 6.68771C8.3241 6.83928 8.29884 7.01612 8.07148 8.10239C7.66728 10.0728 7.01046 14.1401 7.01046 14.9232C6.9852 16.6916 7.01046 18.3589 7.03573 18.6873C7.11151 19.1925 7.28835 19.5462 7.61676 19.7735C7.94517 20.0009 8.122 20.0514 8.47567 19.9504C8.82935 19.8746 9.00618 19.7483 9.20828 19.4704C9.43564 19.142 9.48616 18.7883 9.48616 17.2473C9.4609 15.3779 9.71352 12.4222 9.8651 12.2454C9.91562 12.2201 10.244 12.1949 10.623 12.2454C12.0377 12.3717 13.1997 12.1191 14.0839 11.4623C15.0439 10.7549 15.4481 9.94653 15.5238 8.58237C15.5996 6.78876 15.0186 5.19724 13.9828 4.38884C13.6544 4.16148 13.5534 4.13622 13.0481 4.06043C12.7955 4.00991 12.6187 3.98465 12.4671 4.00991Z" fill="white"/>
</svg>
