<svg width="24" height="24" viewBox="0 0 24 24" fill="none" xmlns="http://www.w3.org/2000/svg">
<path d="M12 24C18.65 24 24 18.65 24 12C24 5.34996 18.65 0 12 0C5.34996 0 0 5.34996 0 12C0 18.65 5.34996 24 12 24Z" fill="#E42962"/>
<path d="M15.3 13.9001C15.3 12.1501 14.25 11.5501 12.15 11.3002C10.65 11.1001 10.35 10.7002 10.35 10.0001C10.35 9.30002 10.8501 8.85014 11.85 8.85014C12.75 8.85014 13.2501 9.15014 13.5 9.90015C13.5501 10.0501 13.7001 10.1501 13.8501 10.1501H14.65C14.85 10.1501 15 10.0001 15 9.80018V9.75014C14.8 8.6501 13.9 7.80014 12.75 7.70018V6.50018C12.75 6.30014 12.6 6.15014 12.3501 6.1001H11.6001C11.4 6.1001 11.25 6.2501 11.2 6.50018V7.65014C9.70001 7.85018 8.7501 8.85014 8.7501 10.1002C8.7501 11.7502 9.75005 12.4001 11.85 12.6502C13.2501 12.9002 13.7001 13.2002 13.7001 14.0002C13.7001 14.8002 13 15.3502 12.0501 15.3502C10.75 15.3502 10.3 14.8001 10.15 14.0501C10.1001 13.8502 9.95009 13.7501 9.80009 13.7501H8.95002C8.7501 13.7501 8.6001 13.9001 8.6001 14.1002V14.1502C8.80002 15.4001 9.60005 16.3001 11.25 16.5502V17.7502C11.25 17.9501 11.4 18.1001 11.65 18.1502H12.4C12.6 18.1502 12.75 18.0002 12.8001 17.7502V16.5502C14.3001 16.3001 15.3 15.2501 15.3 13.9001Z" fill="white"/>
<rect x="4" y="4" width="16" height="16" rx="8" stroke="white" stroke-width="2"/>
</svg>
