<svg width="24" height="24" viewBox="0 0 24 24" fill="none" xmlns="http://www.w3.org/2000/svg">
<path d="M12 24C18.65 24 24 18.65 24 12C24 5.34996 18.65 0 12 0C5.34996 0 0 5.34996 0 12C0 18.65 5.34996 24 12 24Z" fill="#FECE46"/>
<path d="M15.7143 12C15.5215 12 15.3314 12.0114 15.1429 12.029V12C15.1429 7.49429 13.4534 4 12 4C10.5466 4 8.85714 7.49429 8.85714 12V14.8571H6V16.5714C6.00101 17.4804 6.36256 18.3519 7.00532 18.9947C7.64809 19.6374 8.51957 19.999 9.42857 20H11.1429C12.8094 19.9981 14.4071 19.3353 15.5854 18.1569C16.7638 16.9785 17.4267 15.3808 17.4286 13.7143V12H15.7143ZM10 12H11.1429V10.8571H10.0416C10.0896 10.088 10.1976 9.32376 10.3647 8.57143H11.7143V7.42857H10.6857C11.1486 6.05383 11.7228 5.27343 12 5.15069C12.3771 5.31749 13.3053 6.6956 13.7517 9.14286H12.8571V10.2857H13.911C13.9701 10.8552 13.9998 11.4274 14 12V12.2436C12.5418 12.6606 11.2822 13.5882 10.4514 14.8571H10V12ZM9.42857 18.8571C8.82257 18.8565 8.24159 18.6154 7.81308 18.1869C7.38457 17.7584 7.14354 17.1774 7.14286 16.5714V16H9.86509C9.57733 16.7277 9.42924 17.5032 9.42857 18.2857V18.8571ZM16.2857 13.7143C16.2842 15.0778 15.7419 16.385 14.7777 17.3492C13.8136 18.3133 12.5064 18.8556 11.1429 18.8571H10.5714V18.2857C10.5729 16.9222 11.1153 15.615 12.0794 14.6508C13.0436 13.6867 14.3508 13.1444 15.7143 13.1429H16.2857V13.7143Z" fill="#0E3145"/>
</svg>
