<svg width="24" height="24" viewBox="0 0 24 24" fill="none" xmlns="http://www.w3.org/2000/svg"><path d="M12 24C18.65 24 24 18.65 24 12C24 5.34996 18.65 0 12 0C5.34996 0 0 5.34996 0 12C0 18.65 5.34996 24 12 24Z" fill="#7B61FF"/><path d="M16.1937 14.1109C15.7829 14.1109 15.4495 14.4443 15.4495 14.8551C15.4495 15.6558 14.798 16.3073 13.9972 16.3073H9.94065C9.13991 16.3073 8.48837 15.6558 8.48837 14.8551V9.1453C8.48837 8.34456 9.13991 7.69265 9.94065 7.69265H13.9972C14.798 7.69265 15.4495 8.34419 15.4495 9.1453C15.4495 9.55609 15.7829 9.88949 16.1937 9.88949C16.6045 9.88949 16.9379 9.55609 16.9379 9.1453C16.9379 7.52372 15.6184 6.20428 13.9972 6.20428H12.7131V4.74419C12.7131 4.3334 12.3797 4 11.9689 4C11.5581 4 11.2247 4.3334 11.2247 4.74419V6.20428H9.94065C8.31907 6.20428 7 7.52335 7 9.1453V14.8551C7 16.4763 8.31907 17.7957 9.94065 17.7957H11.2247V19.2558C11.2247 19.6666 11.5581 20 11.9689 20C12.3797 20 12.7131 19.6666 12.7131 19.2558V17.7957H13.9972C15.6184 17.7957 16.9379 16.4763 16.9379 14.8551C16.9379 14.4439 16.6048 14.1109 16.1937 14.1109Z" fill="#231F20"/></svg>
