<svg width="24" height="24" viewBox="0 0 24 24" fill="none" xmlns="http://www.w3.org/2000/svg">
<path d="M12 24C18.65 24 24 18.65 24 12C24 5.34996 18.65 0 12 0C5.34996 0 0 5.34996 0 12C0 18.65 5.34996 24 12 24Z" fill="#C4162E"/>
<path d="M5.52941 16C7.27341 16 8.48275 14.9013 8.48275 13.2827V13.272C8.48275 11.8147 7.43208 10.76 5.97608 10.76C5.20408 10.76 4.57341 11.076 4.25341 11.596H4.22141L4.41075 9.42H8.02008V8.13333H3.14941L2.79741 12.672H4.17475C4.26808 12.512 4.39475 12.3613 4.54275 12.244C4.80541 12.0347 5.14141 11.9173 5.54008 11.9173C6.37075 11.9173 6.96408 12.4907 6.96941 13.304V13.316C6.96941 14.14 6.37608 14.72 5.53475 14.72C4.79475 14.72 4.25341 14.2693 4.13741 13.6853L4.13208 13.648H2.66675L2.67208 13.728C2.76008 15.02 3.86408 16 5.52941 16ZM11.8481 16C13.7494 16 14.9054 14.4627 14.9054 12.0027V11.992C14.9054 9.532 13.7494 8 11.8481 8C9.94141 8 8.78541 9.53333 8.78541 11.992V12.0027C8.78541 14.4627 9.94008 16 11.8481 16ZM11.8481 14.7027C10.9174 14.7027 10.3921 13.7013 10.3921 12.0027V11.992C10.3921 10.2933 10.9174 9.29733 11.8481 9.29733C12.7721 9.29733 13.3027 10.2933 13.3027 11.992V12.0027C13.3027 13.7013 12.7721 14.7027 11.8481 14.7027ZM18.2761 16C20.1774 16 21.3334 14.4627 21.3334 12.0027V11.992C21.3334 9.532 20.1774 8 18.2761 8C16.3694 8 15.2134 9.53333 15.2134 11.992V12.0027C15.2134 14.4627 16.3694 16 18.2761 16ZM18.2761 14.7027C17.3454 14.7027 16.8201 13.7013 16.8201 12.0027V11.992C16.8201 10.2933 17.3454 9.29733 18.2761 9.29733C19.2001 9.29733 19.7307 10.2933 19.7307 11.992V12.0027C19.7307 13.7013 19.2001 14.7027 18.2761 14.7027Z" fill="white"/>
</svg>
