<svg width="33" height="32" fill="none" xmlns="http://www.w3.org/2000/svg"><g clip-path="url(#a)"><path d="M16.5 31.52c8.571 0 15.52-6.949 15.52-15.52S25.071.48 16.5.48.98 7.429.98 16 7.929 31.52 16.5 31.52z" fill="url(#b)"/><path d="M23.292 22.184 18.044 9.496c-.296-.656-.736-.976-1.316-.976h-.464c-.58 0-1.02.32-1.316.976l-2.284 5.528h-1.728a.947.947 0 0 0-.94.94v.012a.95.95 0 0 0 .94.94h.928l-2.18 5.268a1.1 1.1 0 0 0-.064.36c0 .296.092.528.256.708.164.18.4.268.696.268a.93.93 0 0 0 .54-.18c.168-.116.284-.284.376-.476l2.4-5.952h1.664a.947.947 0 0 0 .94-.94v-.024a.95.95 0 0 0-.94-.94h-.888l1.832-4.564 4.992 12.416c.092.192.208.36.376.476a.94.94 0 0 0 .54.18c.296 0 .528-.088.696-.268.168-.18.256-.412.256-.708a.839.839 0 0 0-.064-.356z" fill="#fff"/></g><defs><linearGradient id="b" x1="28.072" y1="6.263" x2="4.978" y2="25.695" gradientUnits="userSpaceOnUse"><stop stop-color="#B6509E"/><stop offset="1" stop-color="#2EBAC6"/></linearGradient><clipPath id="a"><path fill="#fff" transform="translate(.5)" d="M0 0h32v32H0z"/></clipPath></defs></svg>