<svg width="33" height="32" fill="none" xmlns="http://www.w3.org/2000/svg"><g clip-path="url(#a)"><circle cx="16.5" cy="16" r="16" fill="url(#b)"/><path d="M14.649 9.776c-.228-.032-.239-.043-.13-.054.206-.032.682.011 1.018.087.78.184 1.483.66 2.23 1.495l.196.227.281-.043c1.203-.195 2.437-.044 3.466.433.282.13.726.39.78.455.022.021.054.162.076.303.075.509.043.888-.12 1.18-.086.163-.086.206-.032.347.043.108.173.184.292.184.26 0 .531-.411.661-.985l.054-.228.098.109c.552.617.985 1.472 1.05 2.079l.022.162-.098-.14a1.83 1.83 0 0 0-.52-.553c-.368-.249-.758-.325-1.786-.379-.932-.054-1.463-.13-1.982-.303-.888-.292-1.343-.671-2.394-2.069-.466-.617-.758-.953-1.05-1.234-.64-.618-1.278-.943-2.112-1.073z" fill="#FF007A"/><path d="M22.717 11.152c.022-.412.076-.683.195-.932.043-.097.087-.184.098-.184.01 0-.011.076-.044.163-.086.238-.097.574-.043.953.076.487.108.552.628 1.083.238.249.52.563.628.693l.184.238-.184-.173c-.227-.217-.747-.628-.866-.683-.076-.043-.087-.043-.141.011-.043.044-.054.109-.054.423-.011.487-.076.79-.238 1.104-.087.163-.098.13-.022-.054.054-.14.065-.206.065-.671 0-.942-.108-1.17-.77-1.549a8.089 8.089 0 0 0-.606-.314 2.424 2.424 0 0 1-.292-.14c.022-.022.66.162.91.27.379.151.444.162.487.151.033-.032.054-.119.065-.39zm-7.624 1.613c-.455-.628-.748-1.603-.683-2.328l.022-.227.108.021c.195.033.531.163.694.26.433.26.628.617.812 1.505.054.26.13.564.162.661.054.163.26.542.433.78.12.173.044.26-.227.238-.412-.043-.964-.422-1.321-.91zm7.072 4.711c-2.145-.866-2.903-1.613-2.903-2.88 0-.185.011-.336.011-.336.01 0 .087.065.184.14.433.347.92.499 2.274.694.791.119 1.246.206 1.657.346 1.311.434 2.123 1.322 2.318 2.524.054.346.022 1.007-.065 1.354-.076.27-.292.768-.346.78-.011 0-.033-.055-.033-.142-.021-.454-.249-.888-.628-1.223-.455-.39-1.04-.683-2.47-1.257zm-1.517.358a2.567 2.567 0 0 0-.108-.455l-.054-.162.097.119c.141.162.25.357.347.628.076.206.076.27.076.607 0 .324-.011.4-.076.584a1.96 1.96 0 0 1-.455.726c-.39.4-.899.617-1.625.715-.13.01-.498.043-.823.065-.812.043-1.353.13-1.84.303-.066.022-.13.043-.142.033-.021-.022.314-.217.585-.347.38-.184.77-.282 1.625-.433.422-.065.855-.152.964-.195 1.072-.336 1.603-1.17 1.43-2.188z" fill="#FF007A"/><path d="M21.634 19.578c-.281-.618-.346-1.203-.195-1.755.022-.054.044-.108.065-.108.022 0 .087.032.152.076.13.086.4.238 1.094.617.877.476 1.375.845 1.722 1.267.303.368.487.79.574 1.31.054.293.022.997-.054 1.29-.239.92-.78 1.656-1.57 2.079-.12.065-.217.108-.228.108-.01 0 .033-.108.097-.238.26-.552.293-1.083.098-1.679-.12-.368-.368-.812-.866-1.56-.596-.866-.737-1.093-.889-1.407zm-8.069 3.314c.802-.672 1.787-1.148 2.697-1.3.39-.065 1.04-.043 1.397.054.574.152 1.094.476 1.365.877.26.39.379.726.498 1.473.043.293.098.596.108.66.087.39.26.694.477.856.336.25.92.26 1.494.044.098-.033.184-.065.184-.054.022.021-.27.216-.465.314-.27.14-.488.184-.78.184-.52 0-.964-.271-1.321-.813-.076-.108-.228-.422-.358-.714-.379-.878-.574-1.137-1.018-1.43-.39-.249-.888-.303-1.267-.119-.498.238-.628.877-.281 1.267.14.163.4.293.617.325a.66.66 0 0 0 .747-.66c0-.26-.097-.412-.357-.531-.347-.152-.726.021-.715.357 0 .14.065.228.206.293.086.043.086.043.021.032-.314-.065-.39-.455-.14-.704.303-.303.942-.173 1.159.25.086.172.097.519.021.736-.184.476-.704.725-1.235.584-.357-.097-.509-.195-.942-.639-.758-.78-1.05-.931-2.133-1.093l-.206-.033.227-.216z" fill="#FF007A"/><path fill-rule="evenodd" clip-rule="evenodd" d="M7.869 5.466c2.523 3.065 6.411 7.83 6.606 8.09.163.217.098.422-.173.574a1.656 1.656 0 0 1-.617.173.782.782 0 0 1-.52-.227c-.098-.098-.52-.715-1.473-2.199a140.28 140.28 0 0 0-1.354-2.09c-.043-.022-.043-.022 1.278 2.34.834 1.483 1.105 2.014 1.105 2.079 0 .14-.044.216-.217.411-.292.325-.422.693-.52 1.462-.108.856-.4 1.462-1.234 2.491-.488.607-.564.715-.683.964-.151.303-.195.477-.216.867-.022.411.021.671.14 1.061.109.347.228.574.52 1.018.25.39.401.682.401.79 0 .087.022.087.412 0 .931-.216 1.7-.584 2.122-1.039.26-.282.325-.433.325-.823 0-.25-.01-.303-.076-.455-.108-.238-.314-.433-.758-.736-.585-.401-.834-.726-.899-1.16-.054-.367.011-.617.336-1.299.336-.704.422-.996.477-1.711.032-.455.086-.64.216-.78.141-.151.26-.206.596-.249.552-.076.91-.217 1.191-.487.25-.228.358-.455.369-.791l.01-.25-.14-.15C14.582 12.754 7.532 5 7.5 5c-.01 0 .163.206.369.466zm3.325 15.4a.447.447 0 0 0-.141-.595c-.184-.12-.466-.065-.466.097 0 .044.022.087.087.109.097.054.108.108.032.227-.076.119-.076.227.022.303.152.12.357.054.466-.14zm4.386-5.696c-.26.075-.509.357-.585.639-.043.173-.021.487.054.584.12.152.228.195.531.195.596 0 1.105-.26 1.159-.574.054-.26-.173-.617-.488-.78a1.101 1.101 0 0 0-.67-.065zm.693.541c.087-.13.054-.27-.108-.368-.292-.184-.737-.033-.737.249 0 .14.228.292.444.292.141 0 .336-.086.401-.173z" fill="#FF007A"/></g><defs><linearGradient id="b" x1="30" y1="24" x2="4.5" y2="3.5" gradientUnits="userSpaceOnUse"><stop stop-color="#FFCAE2"/><stop offset="1" stop-color="#FDE9F2"/></linearGradient><clipPath id="a"><path fill="#fff" transform="translate(.5)" d="M0 0h32v32H0z"/></clipPath></defs></svg>