<svg width="33" height="32" fill="none" xmlns="http://www.w3.org/2000/svg"><g clip-path="url(#a)"><path fill-rule="evenodd" clip-rule="evenodd" d="M16.5 0c8.835 0 16 7.165 16 16s-7.165 16-16 16-16-7.165-16-16 7.165-16 16-16z" fill="#006AE3"/><path d="M15.84 22.746V9.434h1.45v13.312h-1.45z" fill="#fff"/><path d="m23.22 13.868-4.477 1.188-.998-4.647 1.33-.3.526 2.201s1.21-1.984-.404-4.038c-.95-1.056-1.401-1.101-2.467-1.268-.937-.134-3.117.183-3.766 2.727-.275 1.638.035 2.851 2.147 4.438l-.118 1.767s-2.359-1.661-2.967-2.826c-.47-.922-1.277-2.742.18-5.277.783-1.267 2.329-2.483 5.052-2.355 1.37.058 4.714 1.731 4.195 5.642-.09.732-.47 1.708-.47 1.708l1.837-.41.4 1.45zm-2.557 10.416c-.819 1.245-2.397 2.42-5.113 2.221-1.37-.093-4.666-1.856-4.045-5.75.109-.73.515-1.693.515-1.693l-1.846.358-.362-1.456 4.509-1.068.877 4.672-1.341.265-.467-2.217s-1.261 1.948.294 4.048c.922 1.081 1.37 1.136 2.435 1.33.931.16 3.12-.102 3.837-2.626.317-1.63.038-2.852-2.029-4.496l.167-1.764s2.313 1.722 2.89 2.903c.44.937 1.2 2.78-.32 5.273z" fill="#fff"/></g><defs><clipPath id="a"><path fill="#fff" transform="translate(.5)" d="M0 0h32v32H0z"/></clipPath></defs></svg>