<svg width="24" height="24" viewBox="0 0 24 24" fill="none" xmlns="http://www.w3.org/2000/svg">
<path d="M12 24C18.65 24 24 18.65 24 12C24 5.34996 18.65 0 12 0C5.34996 0 0 5.34996 0 12C0 18.65 5.34996 24 12 24Z" fill="#D69A00"/>
<path d="M5.54123 12C5.48506 11.9985 5.42937 12.0107 5.37896 12.0356C5.32856 12.0604 5.28495 12.0972 5.2519 12.1426L2.95323 15.5733C2.82523 15.764 2.98523 16 3.24257 16H11.4226C11.6799 16 11.8399 15.764 11.7119 15.5733L9.41323 12.1426C9.38018 12.0972 9.33658 12.0604 9.28617 12.0356C9.23577 12.0107 9.18008 11.9985 9.1239 12H5.54123ZM14.8746 12C14.8184 11.9985 14.7627 12.0107 14.7123 12.0356C14.6619 12.0604 14.6183 12.0972 14.5852 12.1426L12.2866 15.5733C12.1586 15.764 12.3186 16 12.5759 16H20.7572C21.0132 16 21.1732 15.764 21.0452 15.5733L18.7466 12.1426C18.7135 12.0972 18.6699 12.0604 18.6195 12.0356C18.5691 12.0107 18.5134 11.9985 18.4572 12H14.8746ZM10.2079 6.66662C10.1517 6.66517 10.096 6.67739 10.0456 6.70225C9.99522 6.7271 9.95162 6.76384 9.91857 6.80929L7.6199 10.24C7.4919 10.4306 7.6519 10.6666 7.90923 10.6666H16.0906C16.3466 10.6666 16.5066 10.4306 16.3786 10.24L14.0799 6.80929C14.0468 6.76384 14.0032 6.7271 13.9528 6.70225C13.9024 6.67739 13.8467 6.66517 13.7906 6.66662H10.2079Z" fill="white"/>
</svg>
